<?xml version="1.0" encoding="UTF-8"?>
<svg xmlns="http://www.w3.org/2000/svg" version="1.1" viewBox="0 0 498 736">
  <defs>
    <style>
      .cls-1 {
        fill: #0e0c0a;
      }

      .cls-1, .cls-2 {
        fill-rule: evenodd;
      }

      .cls-3 {
        fill: none;
        stroke: #000;
      }

      .cls-2 {
        fill: #b16c52;
      }
    </style>
  </defs>
  <!-- Generator: Adobe Illustrator 28.7.1, SVG Export Plug-In . SVG Version: 1.2.0 Build 142)  -->
  <g>
    <g id="_图层_1" data-name="图层_1">
      <path class="cls-1" d="M202,419v5l18,2v-4l-18-3ZM71,397l6,13,28,3,12,7-5-8-41-15ZM143,391v11l18,24,21,4,6,7-4-21-10,5-1,6h-7l-13-18v-9l-10-9ZM231,376h-27l4,19-6,18,8-11-1-21,17-1,3,21,2-25ZM226,340l5,9-5-9ZM128,307l-24,12,1,5,19,6-11-11,15-12ZM178,301l-4,66,7,39,4-77-7-28ZM153,280l-2,31,9,13,1,63,8,7-4-19,4-47-8-6-5-17,4-19-7-6ZM162,267l-3,5,3-5ZM102,263l-4,9-22-8,5,95,5,31,6,8,5-47-9-19,1-18,20-46-7-5ZM81,271l17,6-2,18-8,12-5-1-2-35ZM153,251l-4,20,7-13-3-7ZM74,236v10l7,5-7-15ZM224,219l16,17-16-17ZM176,214l-7,22,7,13-5,29,7,12,3-40-7-15,2-21ZM216,200l-2,12,5,2-3-14ZM140,196l10,15-7,27,3,4,7-32-13-14ZM82,194l-6,6,3,7-6,5v14l4-13,14-11-9-8ZM110,187l-10,3,10-3ZM190,184l8,12-2,27,10,13-9,21,8,17-5,23,5,60,10-3-6-23,21-1-5-9h-9l1-20,31-17-8,3-13-12,2-7h-11l2-20,13-10-15,7-5,20h-6l2-31-8-13v-26l-11-11ZM211,267l7,1,16,17-20,17-7-8,4-27ZM105,163l-10,5-8,15,11-13,15-6,15,7-2,15-16,33-13,10-7-3-2,7,11,9,30,9-3,39,13,19-8-19,3-46-15-17,17-62-31-2ZM101,231l15-6,8,17-18-1-5-10ZM210,160l3,7,18,10-13,15,27-15h-8l-27-17ZM254,153l8,14v23l-21,15,16,6,3,34,4-19-7-23,8-13v-23l-11-14ZM90,133l-25,38-11,35,5,50-1,97,10,41-6-29,2-115-7-43,13-37,25-30-5-7ZM83,126l-8-27-33,5,31-2,2,16,8,8ZM88,84l8,30,15,8,9,16,23,18,3,16-4-21-26-29-19-13-9-25ZM40,82l35,3-35-3ZM252,68l-7,25-59,28-21,27-2,56,3-5,7,1-8-15,4-37,23-26,50-20,13-18-3-16ZM375,39h-8l-25,21-28,47-10,40,1,54-15,39v28l20,23,19,12,17,38,22,17,34,4,36-14h19l13,31-5,26-18,19-48,23-25,27-24,53-13,63-27,87-27,28-27,2-22-15-8-12,7-65,12-20,16-53v-25l-6-7h-14l-14,13-19,38-11,3-8-6v-51l11-35-1-16,22,1,12-11,24-73-1-55,8-43-10-14,2-9-15,10,11,1,9,16-8,28-1,71-17,58-17,17-13,2-11-9-3,5-21,5-11-6-16,5-7-3,3-40-6-21-13-10,12-13,12,4,1-30-10-19-4,11,10,9-1,17-30,18,19,13,7,30-4,29-29,25-24,4-18-12-24-2-8-13,2-13,16,9h23l22,12,11-1,11-9,7-27-11,23-10,9-30-10h-22l-11-11-10-1-2,15,9,21,28,1,10,6v7l-42,106-12,85,5-5,14-68,18-55,29-62,7-1,1,6-16,44,1,11,6,2,13-22,10-47,26-13-26,73v9l7,1,28-79,10-8,7,2-4,34-19,43v8l10,3,20-71,13-16h8l2,24-18,53,8,30,16,7,16-2,24-48,8-7h9l4,8-1,14-37,84-6,35,3,21,10,16,25,19,21,4,26-7,20-20,21-42,16-109,21-52,21-27,61-28,21-19,8-17,2-21-6-22-16-18-23-2-39,12-27-2-21-17-20-47-33-25,3-27,10-24-2-73,5-23,11-20,48-40-2-12ZM289,38l-17,8,2,31-20,33-19,14-34,9v5l-15,10-4,8,4,24,5-32,9-3,6,7v-11l13-6,11,14-3-16,21-10,26-30,5-23-3-21,13-11ZM306,26l-5-7h-26l-18,11-8,23,9-4,8-19,18-10,16,5v11l5-1,1-9Z"/>
      <path class="cls-2" d="M42,86l-1,16,35-4,11,31,9,7-22,31-15,39-1,17,8,28-2,115,12,30,37,15,11,18-8,21-14,11-10,1-21-12h-23l-13-11-4,13,5,9,13-1,1,5h11l18,12,24-4,28-25,3-28-9-30-15-8v-5l28-17,2-16-11-7,6-31-10-14,2-38-41-20,3-9,7,3,7-5v-7l13-8-1-17-14,1-14-7-2-6,9-13,14-6h22l7,10-8,26,7,1,6-15-1-25-23-17-8-17-15-8-9-29h-44ZM125,308l-4,23-18-7,3-8,19-8ZM73,236l7,3,5,16,26,9-8,30-12,19,1,27,7,12-4,47-12-11-10-152ZM82,191l8,13-18,23-1-20,6-15,5-1ZM104,135l5-1,1,5-5,1-1-5ZM287,21l-20,10-9,21-6,2,9,32-18,17-51,21-22,26-3,36,5,12-6,1,2,12-10,16,3,22-8,27,9,10-4,21,5,1,8,20-4,35,4,31-5,1-19-21-2,15,16,18-3,7,8,11,4-6,14-3,8,27,14,10,9-1,18-17,18-60-4-41,4-1,8-50-7-18-7-1-1-5,12-11,3-26-15-21,16-11,1-21-10-14-27-4-5-15-12,7,4,15,6,4,9-3,19,15-25,20,2,22,19,16-3,7-16,8-2,20,14-1-1,8,9,17-24,11-1,19,9-1,4,6-5,7,7,11,3-7,5,1,1,10-37,11,1,12,28,5,1,20-12,18v13l-22-4-1-17,5-8-19,5-5,6-7-4-1-54,6-20-6-18,5-17-8-18,6-27-7-20,5-12,7,3,6-12,10-2v-12l-16-22v-16l19-26,37-10,17-13,20-33-2-32,30-14-14-9ZM235,273l5-1,1,5-5,1-1-5Z"/>
      <path class="cls-3" d="M204,375l4,20-8,12,2,17,18,3v-10l-5,7-9-1-4-7,8-14-1-21,19,2,1,13-7,16,11-18-2-18-27-1Z"/>
      <path class="cls-3" d="M242,279l4,9,4-2-8-7Z"/>
      <path class="cls-3" d="M162,250l-1,27,4-18-3-9Z"/>
      <path class="cls-3" d="M81,192l-8,14,1,40,10,12,18,9-7,6-20-10,6,96,8,26-3,5,6,8,23,7,9,10-6-9-25-11,4-44-8-13v-24l12-20,4-22,8-9-6,3-26-14-7-20,2-15,20-20-9,4-6-9Z"/>
      <path class="cls-3" d="M40,82l46,2,10,30,18,11,6,12-5,2,9,1,19,18,1,23-5,15,11,15-7,30,11,15-5,11,5,16-3,28,9,13,1,63,11,13-7-25,4-47-11-12,5,1,1-14-5,9-4-9,6-16-11-13,7-19-11-13,8-30-13-17,6-27-4-15-27-31-19-13-6-25-51-2Z"/>
      <path class="cls-3" d="M375,39h-8l-25,21-28,47-10,40,1,54-15,39v28l20,23,19,12,17,38,14,13,22,8h20l36-14h19l12,25,1,21-20,28-51,25-30,35-19,45-35,140-13,21-24,19-18,1-17-7-18-25,8-61,24-57,4-41-6-7h-14l-14,13-19,38-11,3-8-6v-51l11-35-5-19,21,5,17-12,24-73-1-55,8-43-11-16,11-24-7-32,8-13v-23l-8-14-25-4-6-16,22-10,23-26,9-32-5-16,8-8,22-6,2-8-6-8-14-2-27,10-12,19,2,33-4,13-60,29-23,32-1,49,5,8-4-18,15,15-9,26,8,18-7,25,9,20-6,20,7,16-6,18,4,59,6-8,1-72-8-47,4-32-7-15,5-26-14-24,4-37,23-26,50-20,13-18-5-21,2-19,5,16,9-30,20-11,17,8-6,10-17,2-8,7,2,31-20,33-19,14-35,9,2,4-20,19v19l16,21-2,27,11,14-10,20,9,19-6,21,4,14-2,61,1-15,30-9-13-23,14,9,2,13,2-9-13-17-8,3-2-4,2-19,27-12-20-18,27-9,10,17-10,30,1,69-18,58-22,19-22-12-7-24,8-8-20,11-28-33,2-47-8-16,2-23-9-14,4-45-15-18,17-61-22-3-19,6-7,12h-5l20,11,12-4-24-2,7-15,13-7,18,8-7,29-6-11,2,19-25,15-6,9,12,10,30,9-3,39,11,16-2,25-26-9,18-16-24,15,7,7,20,3,12,13-2,16-32,20,21,11,7,30-3,27-30,27-15-1,4,5h-13l-21-13h-16l11-5-16,4-8-13,5-16,13,12h23l22,12,11-1,11-9,10-25-12-13-40-15-10-32,2-115-7-43,17-43,22-25h12-10l-13-10-10-30-33,5,31-2,2,16,14,18-24,35-11,35,8,176,15,28,32,4,10,10-9,22-11,10-29-11h-22l-11-11-10-1-2,15,9,21,28,1,12,9-44,110-12,85,5-5,14-68,18-55,29-62,9,2-17,47,1,11,6,2,13-22,10-47,23-16,3,3-26,73,4,11,7-7,24-73,10-8,7,2-4,34-19,43v8l10,3,20-71,13-16h8l2,24-18,53,8,30,16,7,16-2,24-48,16-8,5,9-1,14-37,84-6,35,3,21,10,16,25,19,21,4,26-7,20-20,21-42,16-109,21-52,21-27,61-28,21-19,8-17,2-21-6-22-16-18-23-2-47,13-19-3-21-17-20-47-33-25,3-27,10-24-2-73,5-23,11-20,48-40-2-12Z"/>
    </g>
  </g>
</svg>