<?xml version="1.0" encoding="UTF-8"?>
<svg xmlns="http://www.w3.org/2000/svg" version="1.1" viewBox="0 0 682.5 366.9">
  <defs>
    <style>
      .cls-1 {
        font-family: STLiti, STLiti;
        font-size: 115.7px;
      }

      .cls-2 {
        fill: #9f928b;
        fill-rule: evenodd;
      }
    </style>
  </defs>
  <!-- Generator: Adobe Illustrator 28.7.1, SVG Export Plug-In . SVG Version: 1.2.0 Build 142)  -->
  <g>
    <g id="_图层_1" data-name="图层_1">
      <g>
        <g id="_图层_1-2" data-name="_图层_1">
          <path class="cls-2" d="M162,207.1v.8-.8ZM134.6,148.6v1.2l-5.5,6.9,1.1,5,.4-2.7,3.6-7.7.4-2.7h0ZM176.2,140.8l-11.7,1.9-1.5.8,5.8-.4,7.3-2.3h0ZM132.8,134.7l-1.5,1.5-.4,2.3,3.3,9.2-1.8-9.6.4-3.5h0ZM184.2,133.1l.4,1.9-5.1,3.9h4l-.7,3.9,2.2-7.7-.7-1.9h0ZM224.4,44.1v.8-.8ZM32.8,14l-5.1,7.3-1.1,12.3,4,35.1,9.9,18.9,21.5,23.1-18.2,20-13.1,22.7-6.9,25.4.7,15.4,3.3,12.3,7.7,12.3,10.9,11.2-.4,1.2-6.9,4.6-5.5,5.8-4.4,7.7-1.5,5.4-.4,5,1.1,5.8,1.1,2.7,2.6,3.9,7.3,6.9-9.9,24.7.7,25.1,5.5,9.6,11.3-3.1-.7-20,2.6-7.3,65,1.9,2.6,2.3-2.6,25.8,2.9,5.8,3.6.8,4.7-5,6.2-16.6-2.2-22,.4-2.7,4.4,8.5,1.1,1.2h20.1l6.2,6.9h.7l5.5-5.4,1.1-.4v-1.2l-5.8-11.9-4.7-2.7h-2.2l-14.2,3.5-2.9-7.3,13.5-20-4.7-12.7,1.8-1.2,11.3-3.9,3.6-14.3h.7l3.6-13.5,2.9-25.8,7.3-7.3,5.1-6.6,3.6-6.9,1.8-5.8.4-7.3-1.1-6.6-1.5-4.6-3.3-5.8v-.8l1.8-1.9,2.6-9.2-2.9-10.4,5.8-1.2,3.3-3.1,5.1-12.3v-3.1l-1.5-6.6-11.7-8.9v-6.9l14.2-1.5,18.2-11.2,7.7-13.1.7-9.6,4.7-3.5,12.4.8,2.9-3.9-.4-3.1-1.1-3.5-9.5-5-14.6,2.7-8.8,8.5-3.3,15-6.6,8.9-34.7,3.9-16.8,11.9-1.8,5.4-7.3,16.2.4,1.9-2.9,9.2,1.1,10.8-1.8,2.7,3.3-3.9-.7-9.6,1.5-3.9,1.1,1.5,2.6,8.5.4,3.1-8.4,15,2.6,11.2-7.3,12.3,1.1,12.3-4.7,7.3,1.1,11.9-2.6,5.4-1.1,1.2-2.6.8-.4-.8,3.3-11.6-.4-11.6,3.3-5.8-.4-3.1-1.1-1.9-2.6-9.2,4.4-7.7-2.9-9.2,6.9-15v-1.5l-4-9.2,7.3-15.8-1.1-10.4-5.5-10-6.2-13.5-5.5-6.6,1.5-25.8-3.6-8.9-1.5-.8-8-.8-4.4,3.9.7,6.6-.4,2.7-8.4-3.9h-.7v1.5l-1.5.4-.4,1.5-1.1.4-.7,6.2h1.1l.4.8,12.4,1.5v1.2h-2.9l-8.4-1.9h-1.5l-.7,1.2-46.3-1.5-4-.4-2.2-1.9-1.1-21.2-6.2-3.5h0ZM117.5,339.4h.7-.7ZM122.6,336.3l.4.4-2.2,5-.7.4-.7-1.5,3.3-4.2h0ZM116.7,335.9l1.1,2.3-.4,1.2-1.5-1.2v-1.5l.7-.8ZM117.5,330.1h.7-.7ZM126.6,325.9l.4-.4.4.8-.4.4-.4-.8ZM118.6,311.6l1.5,7.7v3.5l-1.8,6.2-.4-1.5,1.1-3.9-.7-8.9.4-3.1h0ZM127.3,310.9l.7,1.2,1.5,9.2-2.2,4.6-.4-1.5,1.1-2.7v-3.5l-1.1-6.2.4-1.2h0ZM159.4,309.3h.7-.7ZM110.2,307.8l7.3-.4,1.1,1.2-1.8.4-6.6-1.2h0ZM45.2,306.2l.7,1.5-.7,25.8-1.8,1.2-6.6,1.9-5.8-12.7.4-8.5h.7l5.1,20,6.9-2.7v-24.7l1.1-1.9h0ZM45.2,305.8h.7-.7ZM48.5,306.6l1.1-1.5,25.9,1.2-4.7.8-22.3-.4h0ZM134.6,302.4l.4-.4,2.9,2.7-1.8.4-1.5-2.7ZM49.6,302.8l.4-.8.7.4-.7.8-.4-.4ZM62,302h2.9-2.9,0ZM91.6,300.8h2.9-2.9ZM116,300.1l-.4.8-13.1-.4,13.1-.8.4.4ZM160.5,297.7l1.1,1.2-.4,1.2-1.1-1.2.4-1.2ZM128.8,298.1h.7-.7ZM114.5,298.1l.4-.4.4.8-.4.4-.4-.8ZM114.2,297.4h.7-.7ZM132.1,295.8l2.9,6.2-.7,1.2-1.1-1.5-1.5-4.6.4-1.2h0ZM165.3,308.9l-3.3,2.3-2.9-5,.7,1.9-.4,1.2-4.7-4.2h-14.2l-1.1-1.2,6.2-4.2,4.4-2.3.7.4.4-1.2,6.6-1.2.7.8-.4.4h-3.3l-2.2.8,2.9.4,5.1,3.5,2.9,3.1,1.8,4.6h0ZM113.1,295h.7-.7ZM112.7,294.3h.7-.7ZM111.3,296.2l-47.1,2.7h-13.1l2.2-3.9,55.8-1.2,2.2,2.3h0ZM50,293.9l.4,1.2-1.5,4.2-1.5,1.9-.4-.8,2.9-6.6h0ZM112.4,293.5h.7-.7ZM112,292.7h.7-.7ZM50,293.9l.4-1.2,1.5-.4h27.4l1.1-.4.7-1.5,12,.8h18.6l.7.8-.4.8-49.6.8-12,.8-.4-.4h0ZM129.5,287.3l.4.8-.7,1.5-.7-1.2,1.1-1.2h0ZM129.5,287l.4-.4.4.8-.4.4-.4-.8ZM80.6,287h.7-.7ZM129.9,286.6h.7-.7ZM81.7,286.6h1.1-1.1ZM88.6,286.2h2.9-2.9ZM86.8,286.2h1.5-1.5ZM93,285.8h6.9-6.9ZM105.8,285.4h-6.2l4.7-.4.4-.8,1.1,1.2h0ZM104,284.3h.7-.7ZM103.6,283.9h.7-.7ZM103.2,283.5h.7-.7ZM99.2,282.3l-1.5.8-20.4,3.1-16.8-.4-2.6-.8,4.4-6.2,32.1-1.2,4.7,4.6h0ZM83.5,275.8l-.7,1.2-22.3.4-6.6,10.4h5.8l13.1-1.2h6.9v.8h-1.1l-1.5,1.2-2.9-.4-21.2,2.3-1.1-1.5v-.8l6.2-9.6,2.2-2.3h8.8l6.9-.8,7.3.4h0ZM87.5,275.8l7.3-.8.7,1.2-7.7.4-.4-.8h0ZM85.4,275h.7-.7ZM94.1,274.6h.7-.7ZM92.7,273.1l.7-.4,1.1,1.5-.7.4-1.1-1.5ZM92.3,272.7h.7-.7ZM91.9,272.3h.7-.7ZM91.2,271.9h.7-.7ZM90.8,271.5h.7-.7ZM83.5,271.1l.7.4-.4,1.9-.7-1.5.4-.8h0ZM47.8,271.1l.4.8-5.5,7.7-9.9,29.7-.7.8-.4-6.2,11.3-28.1,4.7-4.6h0ZM47.8,271.1h.7-.7ZM86.8,270.8h2.6-2.6ZM48.1,270.8h.7-.7ZM48.5,270.4h.7-.7ZM77,270h1.8-1.8ZM48.9,270h.7-.7ZM78.8,266.5l4-1.9,2.6,2.7-2.9.4-2.9-.4-.7-.8h0ZM79.1,261.9l.7-.4.7.8-1.1.4-.4-.8h0ZM77.7,261.9l1.1-1.2.7.8-1.1.8-.7-.4h0ZM82.4,256.1l.4.4-1.8,1.5-.4-.4,1.8-1.5ZM82.4,256.1h1.1-1.1ZM97.4,251.5h.7-.7ZM44.1,250.7l1.1.4,1.1,3.5,9.5,1.9.7.8-9.1,8.5-4-4.2-1.8-4.2,1.1-4.6,1.5-1.9h0ZM90.5,249.2l23,22.4,10.6,19.7,1.1,5.4-.4,1.9-11.7-25.4-23-23.1.4-.8h0ZM87.2,248.8h.7-.7ZM87.5,248.4h.7-.7ZM87.9,248h.7-.7ZM88.3,247.6h.7-.7ZM88.6,247.2h.7-.7ZM67.8,247.2h.7-.7ZM67.5,246.9h.7-.7ZM47.4,251.5v-1.2l1.1-.4,4.7,1.9,4.7.8-10.6-3.9.7-.8,3.3-1.5h1.5l.7.8,4.4,1.2h5.1l1.5,1.5-5.5,5-11.7-3.5h0ZM67.1,246.5h.7-.7ZM66.7,246.1h.7-.7ZM71.8,244.2l.4.4-2.6,3.1-1.1.4-.4-.4,3.6-3.5h0ZM53.6,245.7l2.9-1.5,5.1,2.3,1.1,1.2-3.6.4-5.1-1.5-.4-.8h0ZM71.8,244.2l.4-.8.7.4-.7.8-.4-.4ZM74,243.4h.7-.7ZM72.6,243.4h.7-.7ZM72.9,243h.7-.7ZM73.3,242.6h.7-.7ZM73.7,242.2h.7-.7ZM74,241.8h.7-.7ZM74.4,241.5h.7-.7ZM74.8,241.1h.7-.7ZM155.1,239.1h1.1-1.1ZM101,237.6l.7,2.3.4,5.8-4,5.8-.4-.8,3.3-5.4-.7-5.4-.7,4.2-3.3,6.6-3.3-3.5,8-9.6h0ZM75.9,237.6l.7-.4.7,1.2-.4.4-1.1-1.2h0ZM162.4,235.3l-2.2,11.6-2.2,3.1-10.2,3.1-8.4-.4,2.6-9.6,1.1-1.5,12-2.3v.8l-8.4,3.5,9.9-1.9,1.8-1.5,1.1-2.3,2.6-2.7.4.4h0ZM104.7,233l1.5,3.1,5.5,17.7.7.4,8.8-2.7.4,1.5-.7,10.8,11.7,11.6-7.7,13.1-.7-.4-9.1-19.3-15-14.6,5.1-6.9-1.5-11.9,1.1-2.3h0ZM108,226.4l-18.6,20.8-.4-.4-9.5,9.2v1.2l-12.4,11.9-.7-.4,40.9-42.8.7.4h0ZM43.4,223.7h.7-.7ZM43,223.3h.7-.7ZM122.2,221.8l1.1,14.3-4.4,3.1-1.8-5.8v-6.2l1.1-4.2,4-1.2h0ZM60.9,222.2l1.1-.4.7,1.2-1.1.4-.7-1.2ZM139,220.6l13.1,15-5.5,1.9-5.1.8-.7.8-4.4,11.2,1.1,5.4,2.2,6.6-.4,1.2-5.8-5.4,1.1-12.7,6.9-12.3-2.9-11.6.4-.8h0ZM142.6,220.6l1.5-1.2,4.7-1.9,2.9.4,9.9,10,1.1,5.4-1.8,2.3-.7-.4.7-1.9.7-.4v-1.2l-4.4-6.9,2.9,6.6-2.2,5-1.5,1.5-5.5-6.6.4-1.2-.4-.4v1.2l-1.5-1.5.4-.4-.4.4-.7-.8v-.8l-6.2-7.3h0ZM136.1,216l1.1.4-1.8,6.2,1.5,11.6-5.1,11.6-.4,7.7h-.7v-1.5,6.6l4,3.9,7.3,5.4.7,1.5-1.1,1.2-10.6-10,7.7,10.4,3.3.8,2.2-3.5-.7-.4-3.6-11.9,4.7-1.5,4,15.8-5.8,7.3h-1.1l.7,1.2-6.6,10-2.2,2.3,4.4,5.4-2.9-5.4.4-.8,1.1,1.2,4,7.7,5.1-1.2,1.5.4-6.9,3.5h-1.8l-4-3.1-2.2-3.9-1.5-4.2.7-5,2.2-5.4,1.1-1.2-.4.4-.4-.8,1.1-3.1-12.4-13.1,1.8-13.9-5.5,1.2-6.2.4-1.1-1.9-2.9-12.3-1.5-3.9.4-1.9,3.6-4.6,3.6-1.5v5.4l1.5,6.2.4,7.3,3.6.4.7-.4-1.1-.4.7-1.2,3.3-1.5,2.6,10.4-2.6-24.7,1.8-5,10.2-4.2h0ZM149.6,216l.4-.4.7.8-.7.4-.4-.8ZM79.1,216h.7-.7ZM148.9,215.6l-7.7,3.1-.7-.8.7-1.2,6.2-1.5,1.5.4ZM90.8,215.6h.7-.7ZM79.5,215.6h.7-.7ZM140.5,214.9l.4,2.3-.7.4-.4-1.5.7-1.2ZM79.9,215.2l.7-.8,1.8.4-1.8.8-.7-.4ZM54.7,214.9l.4-.4,2.9,3.1,1.1.4-1.8.4-2.6-3.5h0ZM153.6,214.5l-2.6,1.2-2.2-.4,3.6-1.2,1.1.4h0ZM36.1,213.7l7.3,9.2-.4.4-5.8-5.4-1.5-3.1.4-1.2h0ZM35.4,213.7h.7-.7ZM52.9,212.5l.4-.4,1.8,2.3-.4.4-1.8-2.3ZM52.5,212.2h.7-.7ZM52.1,211.8h.7-.7ZM51.8,211.4h.7-.7ZM63.8,214.9l-1.1.8h-3.3l-6.6-6.9,10.6-1.2.4,1.2-.7,4.2.7,1.9h0ZM92.3,211.4l-7.3,2.7-5.8-.4v-1.9l1.5-2.7,7.7-1.9,4,4.2h0ZM89.4,206.8h.7-.7ZM75.9,206.8l1.8,6.9-.4.8-9.1.8-1.5-1.5-.4-1.9.7,3.1h-1.1l-.7-1.5v-1.9l.7-.4v-3.5l9.1-1.2.7.4h0ZM101.8,206.4l-1.8,2.7-4,1.2-1.1-1.5.7-.8,3.3-.8,1.8-1.2,1.1.4h0ZM101.4,206h.7-.7ZM86.8,206l-5.1,1.9-.7.8-.4-.4.7-2.3h5.5ZM89.7,206.4l1.8-1.2,1.8.4-2.6,1.2-1.1-.4h0ZM56.5,205.6h2.6-2.6ZM47.8,205.6l1.5-.4.4,1.2-1.1.4-.7-1.2ZM163.1,205.2l-1.1,5.8-5.8,2.7-13.5,2.3-1.8-.4.7-1.9,13.1-5,6.9-3.5.7.4v.8-1.2h.7ZM162.7,204.8h.7-.7ZM106.2,202.9l.4,1.2-.7,1.5.4-.4.4.8-2.2,1.5-.4-.8,2.2-3.9h0ZM106.2,202.5l.4-.4.4.8-.4.4-.4-.8ZM168.2,201.4v16.2l-2.6,11.9-.7.4-1.1-2.7-8.8-9.6,8.8-5,2.6-9.2,1.8-1.9h0ZM59.4,205.2l13.1-1.9v-.8h2.2l1.1-2.3.4,2.3h2.9l.4-.8,7.3-.4,14.2.4-38,3.9-3.6-.4h0ZM44.8,196.4l19.7-.4,15.3.8-.7.8-3.3.4-30.3-.4-.7-1.2h0ZM107.2,192.1l.4-.4.4.8-.4.4-.4-.8ZM106.2,190.6l-1.1,4.2-8.8-.4,9.1-4.2.7.4ZM148.5,189.8l.4-.4.7,1.2-.7.4-.4-1.2ZM67.5,184.4l-2.2,7.7v1.9l-.7.8h-16.8l-2.9-6.2v-1.9l.7-1.5,18.6-1.2,3.3.4h0ZM159.4,184.8l-.7,1.2-6.2,3.5-2.2-2.7.7-.8,6.9-2.7,1.5,1.5h0ZM80.2,183.3l.7.4v1.2l4,7.3v1.2l-1.1,1.5-5.8-.4,1.1-7.7,1.1-3.5h0ZM77.7,183.3l.4,1.9-1.1,3.9-.4,5.4-8.8.4-.4-.8,2.9-10,7.3-.8h0ZM83.5,183.6l1.5-.8,8-.4.7,1.2,7.7,5.4,1.5.4.4-.4-.7-.8.7-.4,2.2,1.5-4.4,2.3-9.1,2.7-8.4-10v-.8h0ZM41.2,182.5l1.1,1.2,2.9,11.2-.4,1.5-4-12.3.4-1.5ZM180.6,182.1h.7-.7ZM99.6,182.5l5.8-.8,3.6.4-1.1,5-.7.8-.7-1.2-6.9-4.2h0ZM113.1,180.2l.7,1.9v2.7l-4.7,16.6-2.6,4.2-.4-.8,1.1-1.9v-1.2l-4.4-.4,2.2-1.9,1.5-2.3.7.4.4,3.1,1.5-3.5-.4-1.5,4.4-15.4h0ZM71.8,180.6l-3.3,1.9h-23.4l22.3-2.3,4.4.4h0ZM113.5,179l-.4.8-2.9.4h-13.1l-12,.8-7.3-.4.4-.8,2.2-.4,21.9-.8,11.3.4h0ZM74.8,174.8l.7-.4,1.1,1.5-.4.4-1.5-1.5ZM74.4,174.4h.7-.7ZM77.7,174h.7-.7ZM74,174h.7-.7ZM73.7,173.2l-30.7,1.5-.7-.8.4-.8,29.6-1.2,1.5,1.2h0ZM124.4,170.9l.7,5,.4,10.4-3.3,13.9-.7,1.2-2.2.8-.4-.8,4-8.9,1.5-21.6h0ZM89.7,168.6l.4.8-.7,1.5-1.8.4v-1.2l2.2-1.5ZM89.7,168.6h.7-.7ZM174.4,168.2l-3.6,8.5-2.2,2.3-8.8,2.7-5.5.8-3.3,1.2-1.1-.4,2.9-1.2-2.9-.4.7-5.4,1.1-3.1,12.4-3.1h1.5l.7.8,7.3-3.1.7.4h0ZM90.1,168.2h.7-.7ZM129.9,165.1l.4,5.4-2.2,3.1-.4-5.8,2.2-2.7h0ZM30.6,162.4l.4,1.2-2.6,7.7-1.1,24.7-1.5-2.3,1.8-24.7,2.9-6.6h0ZM114.9,172.1l-.4.8-19,.8-6.9.8h-9.1l-1.5-.8,7.3-.8,27.4-.8.4-.4-2.2-8.1.4-1.9,3.6,10.4h0ZM90.8,170.9l1.8-5,5.1-4.2,9.5.4.7.8,2.2,7.7-15.7.8-3.6-.4h0ZM30.6,162l.4-.4.4.8-.4.4-.4-.8ZM93.4,162l-8,7.3-.7-.4,1.8-7.7h4.7l2.2.8ZM76.2,160.9h4.7l2.2.8-2.6,9.6-6.9-.4,2.6-10h0ZM110.9,160.5v1.5-1.5ZM161.3,160.1l5.5,5,.4,3.5-.7.8h-.7l-4.7-8.5.4-.8h0ZM45.6,170.9l-.4-3.5,3.3-7.3,25.2,1.2-2.9,10-24.5.4-.7-.8h0ZM160.5,160.1h.7-.7ZM44.5,159.7l.7.8-2.6,10.8-.4-6.9,2.2-4.6h0ZM47,158.2l.7-.8,22.3.4-14.2.8-8.8-.4h0ZM155.8,156.6l5.5,10.4-.7,1.2-4.7,1.2v-12.7h0ZM78.4,157l5.1-.4,4.7.8,21.5,1.2,1.1,1.5-.4.4-4.7-.8-26.6-1.5-.7-1.2h0ZM157.6,155.5l.4-.8.7.4-.7.8-.4-.4ZM157.2,154.7h.7-.7ZM33.5,154.7h.7-.7ZM170.7,153.9l1.8,1.2,3.3,8.5v1.2l-6.6,3.5-5.5-11.2,4-2.7,2.9-.4h0ZM33.9,153.9h.7-.7ZM79.9,152.4l.4.4-1.8,2.7-.7-1.2,2.2-1.9h0ZM79.9,152.4h.7-.7ZM120.4,151.6l3.6,6.9v8.9l-4-14.3.4-1.5h0ZM74.8,152l-.7.8-2.6.8-20.4,1.9-3.3-.4.7-1.2,2.9-.8,22.6-1.5.7.4h0ZM80.6,151.2l.7-.8,23.4.8,1.8-.4.7,1.2-17.1.4-9.1-.4-.4-.8h0ZM183.9,152.4l2.2,6.9.7,4.2-.4,6.6-2.9,8.1-5.8,6.2,2.2-1.9h1.1l-1.8,3.9-2.2,3.1-4.4,4.2-19.7,12.3-9.9,5-14.2,6.2-39,11.9-17.9,6.2-15.7,6.2-11.7,6.2-2.6.8-5.5,5.8-2.9,6.6v5.8l2.9,5.4,4.4,4.2-.7,1.2-4.7-4.6-1.8-2.7-2.6-6.6-.4-9.6,2.6-8.1,3.6-4.6,4.7-4.6,1.1.4,6.6-4.2,9.5-5,16.1-6.9,15-5,1.5.4-3.6,2.3,22.3-8.9,4.4-2.3,13.5-4.6,15.7-6.6.7.4-3.3,2.3h.7l14.6-7.3-1.5.4-.4-.4.7-.8,5.1-2.7,9.5-6.9.7.4-6.9,6.6,1.1-.4,2.9-2.3,9.5-10,4.7-6.9,1.5-3.1,1.1-8.1-1.1-3.1-2.2-3.1,1.1-1.5,1.8,3.1h0ZM103.6,147.4h.7-.7ZM103.2,147h.7-.7ZM102.9,146.6h.7-.7ZM89.4,146.6l.7-.8,3.3,3.1-4,.4v-2.7ZM159.1,145.5l.4,1.2-3.3,7.3-.7-.8.4-1.5,3.3-6.2h0ZM102.5,145.9h.7-.7ZM159.1,145.5h.7-.7ZM102.1,145.5h.7-.7ZM101.8,145.1h.7-.7ZM80.6,143.9l.7.8.4,5-2.2.4-.4-1.5,1.5-4.6h0ZM101,143.9l.4-.4.7,1.2-.4.4-.7-1.2ZM100.7,143.5h.7-.7ZM78.8,141.6l-1.5,6.2-1.1,2.3-21.5,1.2-2.2-.4,4.7-8.5,17.9-1.2,3.6.4h0ZM83.5,140.8l4,.4-2.2,8.5-2.2-.4.4-8.5h0ZM89,141.2l5.1-.8,6.6,6.9-2.6,1.9-9.1-8.1h0ZM175.9,137.4l.4-.4,1.5,1.9-.4.4-1.5-1.9ZM81.3,137.4l-1.1,1.2-7.3,1.9-17.5-1.2-7.3,13.5-1.1,1.2-.7-.8,8.8-14.6,19.7-.8,5.8-.8.7.4h0ZM175.5,137h.7-.7ZM43.7,136.2v1.5l-9.1,15.8v-1.9l2.9-6.9,6.2-8.5h0ZM82.4,136.2h.7l.4,1.5h13.1l1.8,1.5,2.6,3.9-.4.4-3.3-4.2-13.9-.4-1.1-.8v-1.9h0ZM174.8,135.8l.4-.4.7,1.2-.4.4-.7-1.2ZM174.4,135.4h.7-.7ZM44.5,135.1l.4.8-.7.8-.4-.8.7-.8ZM44.5,135.1h.7-.7ZM110.9,134.3h.7-.7ZM44.8,134.3l.4-.4.4.8-.4.4-.4-.8ZM45.2,133.9h.7-.7ZM45.6,133.5h.7-.7ZM82.8,132.4l7.7-.4,1.5,1.2-8,.4-1.1-1.2h0ZM88.6,130.4h.7-.7ZM88.3,130h.7-.7ZM87.9,129.7h.7-.7ZM87.5,129.3h.7-.7ZM167.5,128.9h.7-.7ZM87.2,128.9h.7-.7ZM108.7,127.7l4-1.9,1.5,2.7,1.1,5-.4.4-6.2-6.2h0ZM159.1,125.4l.7-.4,7.3,6.6,4.7,5,.4,1.5-6.6,1.2-5.1-5.4-1.5-8.5h0ZM181,123.9l4.7,10v2.3l-2.2,6.9-2.6,5.4-2.6,1.9-3.6,1.2h-2.6l-4.4,1.5-8.4,1.5-.4-1.9,1.8-10,13.1-3.1,4.7-.4-2.2-6.2-8-7.3,12.4-1.9h0ZM82.1,128.1l-.4,1.5-13.5-.8,8-6.9,5.8,6.2h0ZM114.2,120.8l-7.7,4.2h-.7l-1.5-1.5,8.8-3.1,1.1.4h0ZM77.7,120l1.5-.4,8.4,8.9-.4.4-9.5-8.9h0ZM75.1,116.9l.4,1.5-12.8,13.5,15.7-.4.4.8-2.2.8h-15l-.7-1.9,14.2-14.3h0ZM75.5,116.9h.7-.7ZM75.9,116.6h.7-.7ZM76.2,116.2h.7-.7ZM96.7,115.8h1.1-1.1ZM76.6,115.8h.7-.7ZM77,115.4h.7-.7ZM97.4,115.4l.7-.8.7.4-.7.8-.7-.4ZM77.3,115h.7-.7ZM100.7,113.9l-1.5,1.2-.7-.4,1.5-1.2.7.4ZM94.5,113.1h.7-.7ZM80.2,112.3l.4.4-2.6,2.3-.4-.4,2.6-2.3ZM83.2,111.9l.4.8-4.4,4.2v-1.9l4-3.1h0ZM80.2,112.3h.7-.7ZM86.8,111.5h2.2l22.3,21.6-.4,1.2-24.1-22.7h0ZM96.7,110.4l.7.8-2.2,1.9v-1.9l1.5-.8h0ZM106.2,110.4l-5.1,3.5-.7-.4,4.4-3.1h1.5ZM82.8,110l.4.4-2.2,1.9-.4-.4,2.2-1.9ZM195.6,110.4l-2.6,8.1-3.6,2.7-7.7.4v-.8l4-1.2-11.3,2.3h-5.5l2.6-8.5.7-.8,15.7-3.1h5.1l2.6.8h0ZM82.8,110h.7-.7ZM68.2,110l-21.9,23.5-.4-.8,2.9-4.2,18.2-18.9,1.1.4h0ZM105.8,110l.7-.8.7.4-.7.8-.7-.4ZM67.8,109.6h.7-.7ZM66.4,109.6h.7-.7ZM106.9,109.2h1.1-1.1ZM68.2,109.2h.7-.7ZM68.6,108.8h.7-.7ZM68.9,108.5h.7-.7ZM69.3,108.1h.7-.7ZM64.9,108.1l.7-.4.4.8-.4.4-.7-.8ZM69.7,107.7h.7-.7ZM70,107.3h.7-.7ZM66.7,107.3h.7-.7ZM70.4,106.9h.7-.7ZM67.1,106.9h.7-.7ZM116.4,106.5l-.4,10.4-.7.8-10.9,4.6h-1.1l-5.8-5.8,12.8-6.9,4.4-3.1h1.8,0ZM70.8,106.5h.7-.7ZM67.5,106.5h.7-.7ZM71.1,106.1h.7-.7ZM71.5,105.8h.7-.7ZM71.8,105.4h.7-.7ZM72.2,105h.7-.7ZM68.6,105h.7-.7ZM72.6,104.6h.7-.7ZM68.9,104.6h.7-.7ZM72.9,104.2h.7-.7ZM69.3,104.2h.7-.7ZM69.7,103.8h.7-.7ZM73.3,103.8l.7-.8.4.4-.4.8-.7-.4ZM70,103.4h.7-.7ZM94.8,102.7l1.1,2.3v1.9l-2.9,5.4-4-4.2,5.8-5.4h0ZM70.4,103.1h.7-.7ZM70.8,102.7h.7-.7ZM71.1,101.9h.7-.7ZM71.5,101.5h.7-.7ZM92.7,101.1l-8,8.5h-1.5l8.8-8.9.7.4h0ZM71.8,101.1h.7-.7ZM72.2,100.7h.7-.7ZM92.3,100.7l.4-.8.7.4-.7.8-.4-.4ZM72.6,100.4h.7-.7ZM93,100h.7-.7ZM93.4,99.6h.7-.7ZM93.7,99.2l.4-.8.7.4-.7.8-.4-.4ZM126.6,94.6h.7-.7ZM114.5,93h1.1l9.1,5.4-6.2,15-.7-1.5-1.1-7.3-7.7.4-4.7-2.7,3.6-5.4,6.6-3.9h0ZM182.4,88.8l.7,2.3,1.1,1.2,12,8.5v5l-1.1,1.5-5.5,1.5-2.6-.4-2.9-5.4-2.6-3.1.4-.8-1.1-1.9,1.5-8.5h0ZM83.5,88l-7.7,8.5-8-5.8.4-.8,10.6-1.9h4.7ZM127,94.2h-2.2l-9.5-4.2-8,4.2-4,3.9-.4,2.7-.7.8,5.5,4.6.7,1.5-1.1,1.2h-1.5l-5.1,1.9-.7-.4-4-8.5,5.8-6.2,2.6-3.9,10.6-3.5,1.1.4.4-.8-1.8-1.2.4-.4h1.5l5.5,2.7,2.2,1.9-.7.4-1.8-1.5-2.9-1.5h-1.1l9.5,5.8h0ZM90.8,85.7l-13.5,14.6h-2.2l15-15,.7.4ZM76.2,85.7l-.7,1.2h-10.9l2.9-1.2h8.8,0ZM161.3,85.3h.7-.7ZM174.8,84.2l1.1.4,1.1,6.6-.4,4.2,1.1,2.3,4,5.4,5.8,5.8-2.2.8-1.8-1.9-5.1-7.3-5.5-6.6,1.8-9.6h0ZM106.2,83.8l.4.8-2.9,5-8.8,9.2-.4-.8,11.7-14.3h0ZM170.7,83.4l.7.8.4,8.9.7,3.5,8.4,11.6-1.5.8-6.9.8-1.8.8-5.8,10,.7,3.5,2.2,3.9-.4,1.2-6.9-6.9v-1.5l1.5-4.2-1.1-14.6v-8.5l4-7.7,5.8-1.9h0ZM106.2,83.8h.7-.7ZM182.4,81.1l.4,3.5-3.3,10.8-1.8-2.3v-9.6l1.5-1.2,3.3-1.2h0ZM158.3,79.5l.4.8-6.6,9.6,4-5,3.6-2.3h1.5l-2.2,7.7-2.2,4.6,1.8,13.5.7,1.9-3.6,17.7.4,4.2,1.8,6.9v3.1l-6.2,9.6,1.1,13.9-6.9,10.4-.4,9.2-2.2,6.9-.7,1.2-9.9,3.5-.4-.8,2.2-6.6,2.2-17,1.5-5.8v-2.7l6.6-15-1.1-12.7,5.8-12.3-2.9-18.1-.4-8.1,9.1-16.6,1.5-1.5,1.5-.4h0ZM79.1,79.9l-1.8,3.5v-2.7l.7-1.2,1.1.4h0ZM158.3,79.5h.7-.7ZM174,79.2l-.4,1.2-8,1.5-3.6,3.5-.4-.4,2.6-3.9,9.1-2.7.7.8h0ZM39.4,78l5.8,10,16.1,15,4,4.2-.4.8-20.4-19.3-5.5-10,.4-.8h0ZM128.8,77.2l8.4,13.5-1.5,9.2-7.3,12.7v1.2l4,9.2-6.9,13.9,1.1,5,2.6,6.2-4,5.8-.7-.8-.4-3.5-4-6.9v-3.5l-4.4-12.3,11.7-24.7,2.2-6.6.7-.4h-1.8l-.4-.8h.7l-2.6-2.3-2.9-4.2-4.4-1.5-4.7-.4-8.4,4.6-.4-.8,6.9-10.4,1.8-1.2,4.4.4,7.3,3.1,4,3.1,3.6,3.9-4.4-6.9-.7-2.7.4-1.9h0ZM38.3,76.1l1.1,1.5-.4.8-1.1-1.5.4-.8ZM37.5,76.1h.7-.7ZM37.2,75.3h.7-.7ZM35,71.4h.7-.7ZM34.6,70.7h.7-.7ZM47,69.5l.4-.4,7.3,9.6,2.2.4-3.6.4-6.2-10ZM98.1,68l-6.2,9.2-37.2-.4-2.9-3.9.4-.8,43.8-4.6,2.2.4h0ZM79.5,66.4l-5.1.8-27,1.5-.4.8-1.1-1.5,1.8-.8,17.5-.4,8-.8,6.2.4h0ZM103.6,65.7l-6.6,12.3-1.1,1.2-14.6.4-.7,4.2,5.1,1.2-4.4.4-1.5-.8-.4-.8.7-5,15.3-.4,6.2-12.3.7-.8,1.1.4h0ZM119.7,61.8l3.6,3.5-2.2-2.7.4-.8,2.9,3.1.4,2.7,2.6,6.6-.7,1.5v4.2l-10.9-3.5-.4-4.6,1.1-2.7.7-.4.7.8-.4,6.6,7.3,1.9-7.7-10,1.1-4.2,1.5-1.9h0ZM77.7,61.8v1.5-1.5ZM120.7,61.8h.7-.7ZM75.5,61.4l1.5,1.2.7,1.5-.4.8-2.2-2.7.4-.8h0ZM211.6,61.4h.7-.7ZM120.4,61.4h.7-.7ZM120,61h.7-.7ZM119.7,60.7h.7-.7ZM74.4,60.7l.4-.4.4.8-.4.4-.4-.8ZM74,59.9h.7-.7ZM70.8,60.3l-2.2.8h-9.5l-8,.8h-6.2l-.7-.8.4-.8,19.7-.8,6.6.8h0ZM78.1,59.9l.7-.8h15.7l4.4.8-20.1.8-.7-.8h0ZM103.2,59.1h3.3-3.3ZM99.2,59.1h3.3-3.3ZM117.8,58l.4,1.2-2.9,10.8-5.5,8.5-.4-.8,8.4-19.7ZM117.8,57.2l.4-.4.4.8-.4.4-.4-.8ZM44.1,56.4l.4-1.9.7-.8h60.6l-1.8,3.9-48.2-.4-11.7-.8h0ZM108,52.6h.7-.7ZM30.6,47.2l4,21.6-.4,1.2-2.2-3.9-1.8-16.6.4-2.3h0ZM110.2,49.9l-1.1.8-.4,1.2-.4-1.5-37.2,1.9h-9.5l-18.2,1.2-2.2-.4v-1.5l.7-.8,2.6-.4,32.1.4,1.1-4.6.4,3.9h32.1ZM78.4,44.8l30.7-.4.4.8-30.7.4-.4-.8ZM226.6,42.9h1.1-1.1ZM227.3,42.5l5.1-3.5,4,.8,4,1.9,2.2.4-1.1,1.2-9.1-1.9-3.6,1.5-1.5-.4h0ZM111.3,38.7l.4,1.2-1.5,3.1-.4-1.2.7-2.7.7-.4h0ZM110.9,37.1v1.5-1.5ZM110.2,36l.4-.4.4.8-.4.4-.4-.8ZM110.2,34v1.5-1.5ZM108.7,34v1.9-1.9ZM94.1,34h1.5v1.9l1.5-2.3,4.4.4,4,1.5.7,3.9-12,.4v-5.8h0ZM244.8,39.1v.8l-1.5.8-2.6-1.5-9.5-1.2-3.3,1.9-1.5,1.5-.4,1.9h-.7l-4.4,18.1-17.1,14.3-9.1,3.1-21.2-1.5-.4.8-2.6-.8-11.3,3.9-.4-.4,1.5-2.7,12-7.3,26.3-.8,5.8-2.7,5.8-4.6,2.2-.4,1.1-3.1-1.5,2.3-.7-.8,1.5-12.7,2.6-4.6.7-.8.4.4-2.2,14.6,2.9-12.3,9.1-10.4,12.4-1.5,1.5,1.2-2.9.4,2.9-.4,1.8.8,2.6,3.9h0ZM109.4,31v1.5-1.5ZM109.1,23.6l.4.8-1.1,1.5v1.2l1.1,3.5-1.1,1.5-.7-7.7s1.5-.8,1.5-.8ZM114.2,22.9l2.2.4,3.6,7.7,1.1,16.6-2.2,7.3-.4-5.8.7-15.8-3.3-8.9-3.3-.8,1.5-.8h0ZM32.4,18.2l.4.4-2.2,3.9v12.3l-.7,7.3-1.1-6.2,1.1-15.4,2.6-2.3h0ZM33.5,16.7l1.1-.8,4,5.8.4,20.4,28.1,1.9h7.3l.7.8-.4.4h-2.9,2.6l.4,1.2-1.5.4-34.7-3.5-.7-3.5-.7-18.1-3.3-3.9-.4-1.2h0Z"/>
        </g>
        <text class="cls-1" transform="translate(224.4 218.7)"><tspan x="0" y="0">分子慧图</tspan></text>
      </g>
    </g>
  </g>
</svg>