<?xml version="1.0" encoding="UTF-8"?>
<svg xmlns="http://www.w3.org/2000/svg" version="1.1" viewBox="0 0 1366 768">
  <defs>
    <style>
      .cls-1 {
        fill: #9f928b;
        fill-rule: evenodd;
      }
    </style>
  </defs>
  <!-- Generator: Adobe Illustrator 28.7.1, SVG Export Plug-In . SVG Version: 1.2.0 Build 142)  -->
  <g>
    <g id="_图层_1" data-name="图层_1">
      <path class="cls-1" d="M677.99,395.01v1.29-1.29ZM632.16,296.88v1.94l-9.17,11.62,1.83,8.39.61-4.52,6.11-12.91.61-4.52ZM701.83,283.97l-19.56,3.23-2.44,1.29,9.78-.65,12.22-3.87ZM629.1,273.64l-2.44,2.58-.61,3.87,5.5,15.49-3.06-16.14.61-5.81ZM715.27,271.06l.61,3.23-8.56,6.46h6.72l-1.22,6.46,3.67-12.91-1.22-3.23ZM782.5,121.92v1.29-1.29ZM461.65,71.56l-8.56,12.27-1.83,20.66,6.72,58.75,16.5,31.63,36.06,38.74-30.56,33.57-22,38.09-11.61,42.61,1.22,25.82,5.5,20.66,12.83,20.66,18.33,18.72-.61,1.94-11.61,7.75-9.17,9.68-7.33,12.91-2.44,9.04-.61,8.39,1.83,9.68,1.83,4.52,4.28,6.46,12.22,11.62-16.5,41.32,1.22,41.96,9.17,16.14,18.95-5.16-1.22-33.57,4.28-12.27,108.78,3.23,4.28,3.87-4.28,43.26,4.89,9.68,6.11,1.29,7.94-8.39,10.39-27.76-3.67-36.8.61-4.52,7.33,14.2,1.83,1.94h33.61l10.39,11.62h1.22l9.17-9.04,1.83-.65v-1.94l-9.78-20.01-7.94-4.52h-3.67l-23.83,5.81-4.89-12.27,22.61-33.57-7.94-21.31,3.06-1.94,18.95-6.46,6.11-23.89h1.22l6.11-22.6,4.89-43.26,12.22-12.27,8.56-10.98,6.11-11.62,3.06-9.68.61-12.27-1.83-10.98-2.44-7.75-5.5-9.68v-1.29l3.06-3.23,4.28-15.49-4.89-17.43,9.78-1.94,5.5-5.16,8.56-20.66v-5.16l-2.44-10.98-19.56-14.85v-11.62l23.83-2.58,30.56-18.72,12.83-21.95,1.22-16.14,7.94-5.81,20.78,1.29,4.89-6.46-.61-5.16-1.83-5.81-15.89-8.39-24.45,4.52-14.67,14.2-5.5,25.18-11,14.85-58.06,6.46-28.11,20.01-3.06,9.04-12.22,27.12.61,3.23-4.89,15.49,1.83,18.08-3.06,4.52,5.5-6.46-1.22-16.14,2.44-6.46,1.83,2.58,4.28,14.2.61,5.16-14.06,25.18,4.28,18.72-12.22,20.66,1.83,20.66-7.94,12.27,1.83,20.01-4.28,9.04-1.83,1.94-4.28,1.29-.61-1.29,5.5-19.37-.61-19.37,5.5-9.68-.61-5.16-1.83-3.23-4.28-15.49,7.33-12.91-4.89-15.49,11.61-25.18v-2.58l-6.72-15.49,12.22-26.47-1.83-17.43-9.17-16.79-10.39-22.6-9.17-10.98,2.44-43.26-6.11-14.85-2.44-1.29-13.45-1.29-7.33,6.46,1.22,10.98-.61,4.52-14.06-6.46h-1.22v2.58l-2.44.65-.61,2.58-1.83.65-1.22,10.33h1.83l.61,1.29,20.78,2.58v1.94h-4.89l-14.06-3.23h-2.44l-1.22,1.94-77.62-2.58-6.72-.65-3.67-3.23-1.83-35.51-10.39-5.81ZM603.43,616.46h1.22-1.22ZM611.99,611.29l.61.65-3.67,8.39-1.22.65-1.22-2.58,5.5-7.1ZM602.21,610.65l1.83,3.87-.61,1.94-2.44-1.94v-2.58l1.22-1.29ZM603.43,600.96h1.22-1.22ZM618.71,593.86l.61-.65.61,1.29-.61.65-.61-1.29ZM605.27,569.97l2.44,12.91v5.81l-3.06,10.33-.61-2.58,1.83-6.46-1.22-14.85.61-5.16ZM619.93,568.68l1.22,1.94,2.44,15.49-3.67,7.75-.61-2.58,1.83-4.52v-5.81l-1.83-10.33.61-1.94ZM673.71,566.1h1.22-1.22ZM591.21,563.52l12.22-.65,1.83,1.94-3.06.65-11-1.94ZM482.43,560.94l1.22,2.58-1.22,43.26-3.06,1.94-11,3.23-9.78-21.31.61-14.2h1.22l8.56,33.57,11.61-4.52v-41.32l1.83-3.23ZM482.43,560.29h1.22-1.22ZM487.93,561.58l1.83-2.58,43.39,1.94-7.94,1.29-37.28-.65ZM632.16,554.48l.61-.65,4.89,4.52-3.06.65-2.44-4.52ZM489.76,555.13l.61-1.29,1.22.65-1.22,1.29-.61-.65ZM510.54,553.83h4.89-4.89ZM560.04,551.9h4.89-4.89ZM600.99,550.61l-.61,1.29-22-.65,22-1.29.61.65ZM675.55,546.73l1.83,1.94-.61,1.94-1.83-1.94.61-1.94ZM622.38,547.38h1.22-1.22ZM598.54,547.38l.61-.65.61,1.29-.61.65-.61-1.29ZM597.93,546.09h1.22-1.22ZM627.88,543.5l4.89,10.33-1.22,1.94-1.83-2.58-2.44-7.75.61-1.94ZM683.49,565.46l-5.5,3.87-4.89-8.39,1.22,3.23-.61,1.94-7.94-7.1h-23.83l-1.83-1.94,10.39-7.1,7.33-3.87,1.22.65.61-1.94,11-1.94,1.22,1.29-.61.65h-5.5l-3.67,1.29,4.89.65,8.56,5.81,4.89,5.16,3.06,7.75ZM596.1,542.21h1.22-1.22ZM595.49,540.92h1.22-1.22ZM593.04,544.15l-78.84,4.52h-22l3.67-6.46,93.5-1.94,3.67,3.87ZM490.37,540.28l.61,1.94-2.44,7.1-2.44,3.23-.61-1.29,4.89-10.98ZM594.88,539.63h1.22-1.22ZM594.27,538.34h1.22-1.22ZM490.37,540.28l.61-1.94,2.44-.65h45.84l1.83-.65,1.22-2.58,20.17,1.29h31.17l1.22,1.29-.61,1.29-83.12,1.29-20.17,1.29-.61-.65ZM623.6,529.3l.61,1.29-1.22,2.58-1.22-1.94,1.83-1.94ZM623.6,528.66l.61-.65.61,1.29-.61.65-.61-1.29ZM541.71,528.66h1.22-1.22ZM624.21,528.01h1.22-1.22ZM543.54,528.01h1.83-1.83ZM555.15,527.36h4.89-4.89ZM552.1,527.36h2.44-2.44ZM562.49,526.72h11.61-11.61ZM583.88,526.07h-10.39l7.94-.65.61-1.29,1.83,1.94ZM580.82,524.14h1.22-1.22ZM580.21,523.49h1.22-1.22ZM579.6,522.84h1.22-1.22ZM572.88,520.91l-2.44,1.29-34.22,5.16-28.11-.65-4.28-1.29,7.33-10.33,53.78-1.94,7.94,7.75ZM546.6,509.93l-1.22,1.94-37.28.65-11,17.43h9.78l22-1.94h11.61v1.29h-1.83l-2.44,1.94-4.89-.65-35.45,3.87-1.83-2.58v-1.29l10.39-16.14,3.67-3.87h14.67l11.61-1.29,12.22.65ZM553.32,509.93l12.22-1.29,1.22,1.94-12.83.65-.61-1.29ZM549.65,508.64h1.22-1.22ZM564.32,508h1.22-1.22ZM561.88,505.41l1.22-.65,1.83,2.58-1.22.65-1.83-2.58ZM561.26,504.77h1.22-1.22ZM560.65,504.12h1.22-1.22ZM559.43,503.48h1.22-1.22ZM558.82,502.83h1.22-1.22ZM546.6,502.19l1.22.65-.61,3.23-1.22-2.58.61-1.29ZM486.7,502.19l.61,1.29-9.17,12.91-16.5,49.71-1.22,1.29-.61-10.33,18.95-47.13,7.94-7.75ZM486.7,502.19h1.22-1.22ZM552.1,501.54h4.28-4.28ZM487.32,501.54h1.22-1.22ZM487.93,500.89h1.22-1.22ZM535.6,500.25h3.06-3.06ZM488.54,500.25h1.22-1.22ZM538.65,494.44l6.72-3.23,4.28,4.52-4.89.65-4.89-.65-1.22-1.29ZM539.26,486.69l1.22-.65,1.22,1.29-1.83.65-.61-1.29ZM536.82,486.69l1.83-1.94,1.22,1.29-1.83,1.29-1.22-.65ZM544.76,477.01l.61.65-3.06,2.58-.61-.65,3.06-2.58ZM544.76,477.01h1.83-1.83ZM569.82,469.26h1.22-1.22ZM480.59,467.97l1.83.65,1.83,5.81,15.89,3.23,1.22,1.29-15.28,14.2-6.72-7.1-3.06-7.1,1.83-7.75,2.44-3.23ZM558.21,465.39l38.5,37.45,17.72,32.93,1.83,9.04-.61,3.23-19.56-42.61-38.5-38.74.61-1.29ZM552.71,464.74h1.22-1.22ZM553.32,464.09h1.22-1.22ZM553.93,463.45h1.22-1.22ZM554.54,462.8h1.22-1.22ZM555.15,462.16h1.22-1.22ZM520.32,462.16h1.22-1.22ZM519.71,461.51h1.22-1.22ZM486.09,469.26v-1.94l1.83-.65,7.94,3.23,7.94,1.29-17.72-6.46,1.22-1.29,5.5-2.58h2.44l1.22,1.29,7.33,1.94h8.56l2.44,2.58-9.17,8.39-19.56-5.81ZM519.1,460.87h1.22-1.22ZM518.48,460.22h1.22-1.22ZM527.04,456.99l.61.65-4.28,5.16-1.83.65-.61-.65,6.11-5.81ZM496.48,459.57l4.89-2.58,8.56,3.87,1.83,1.94-6.11.65-8.56-2.58-.61-1.29ZM527.04,456.99l.61-1.29,1.22.65-1.22,1.29-.61-.65ZM530.71,455.7h1.22-1.22ZM528.26,455.7h1.22-1.22ZM528.87,455.06h1.22-1.22ZM529.48,454.41h1.22-1.22ZM530.1,453.76h1.22-1.22ZM530.71,453.12h1.22-1.22ZM531.32,452.47h1.22-1.22ZM531.93,451.83h1.22-1.22ZM666.38,448.6h1.83-1.83ZM575.93,446.02l1.22,3.87.61,9.68-6.72,9.68-.61-1.29,5.5-9.04-1.22-9.04-1.22,7.1-5.5,10.98-5.5-5.81,13.45-16.14ZM533.76,446.02l1.22-.65,1.22,1.94-.61.65-1.83-1.94ZM678.6,442.14l-3.67,19.37-3.67,5.16-17.11,5.16-14.06-.65,4.28-16.14,1.83-2.58,20.17-3.87v1.29l-14.06,5.81,16.5-3.23,3.06-2.58,1.83-3.87,4.28-4.52.61.65ZM582.04,438.27l2.44,5.16,9.17,29.7,1.22.65,14.67-4.52.61,2.58-1.22,18.08,19.56,19.37-12.83,21.95-1.22-.65-15.28-32.28-25.06-24.53,8.56-11.62-2.44-20.01,1.83-3.87ZM587.54,427.29l-31.17,34.86-.61-.65-15.89,15.49v1.94l-20.78,20.01-1.22-.65,68.45-71.66,1.22.65ZM479.37,422.78h1.22-1.22ZM478.76,422.13h1.22-1.22ZM611.38,419.55l1.83,23.89-7.33,5.16-3.06-9.68v-10.33l1.83-7.1,6.72-1.94ZM508.71,420.19l1.83-.65,1.22,1.94-1.83.65-1.22-1.94ZM639.49,417.61l22,25.18-9.17,3.23-8.56,1.29-1.22,1.29-7.33,18.72,1.83,9.04,3.67,10.98-.61,1.94-9.78-9.04,1.83-21.31,11.61-20.66-4.89-19.37.61-1.29ZM645.6,417.61l2.44-1.94,7.94-3.23,4.89.65,16.5,16.79,1.83,9.04-3.06,3.87-1.22-.65,1.22-3.23,1.22-.65v-1.94l-7.33-11.62,4.89,10.98-3.67,8.39-2.44,2.58-9.17-10.98.61-1.94-.61-.65v1.94l-2.44-2.58.61-.65-.61.65-1.22-1.29v-1.29l-10.39-12.27ZM634.6,409.86l1.83.65-3.06,10.33,2.44,19.37-8.56,19.37-.61,12.91h-1.22v-2.58,10.98l6.72,6.46,12.22,9.04,1.22,2.58-1.83,1.94-17.72-16.79,12.83,17.43,5.5,1.29,3.67-5.81-1.22-.65-6.11-20.01,7.94-2.58,6.72,26.47-9.78,12.27h-1.83l1.22,1.94-11,16.79-3.67,3.87,7.33,9.04-4.89-9.04.61-1.29,1.83,1.94,6.72,12.91,8.56-1.94,2.44.65-11.61,5.81h-3.06l-6.72-5.16-3.67-6.46-2.44-7.1,1.22-8.39,3.67-9.04,1.83-1.94-.61.65-.61-1.29,1.83-5.16-20.78-21.95,3.06-23.24-9.17,1.94-10.39.65-1.83-3.23-4.89-20.66-2.44-6.46.61-3.23,6.11-7.75,6.11-2.58v9.04l2.44,10.33.61,12.27,6.11.65,1.22-.65-1.83-.65,1.22-1.94,5.5-2.58,4.28,17.43-4.28-41.32,3.06-8.39,17.11-7.1ZM657.21,409.86l.61-.65,1.22,1.29-1.22.65-.61-1.29ZM539.26,409.86h1.22-1.22ZM655.99,409.22l-12.83,5.16-1.22-1.29,1.22-1.94,10.39-2.58,2.44.65ZM558.82,409.22h1.22-1.22ZM539.87,409.22h1.22-1.22ZM641.93,407.93l.61,3.87-1.22.65-.61-2.58,1.22-1.94ZM540.49,408.57l1.22-1.29,3.06.65-3.06,1.29-1.22-.65ZM498.32,407.93l.61-.65,4.89,5.16,1.83.65-3.06.65-4.28-5.81ZM663.94,407.28l-4.28,1.94-3.67-.65,6.11-1.94,1.83.65ZM467.15,405.99l12.22,15.49-.61.65-9.78-9.04-2.44-5.16.61-1.94ZM465.93,405.99h1.22-1.22ZM495.26,404.05l.61-.65,3.06,3.87-.61.65-3.06-3.87ZM494.65,403.41h1.22-1.22ZM494.04,402.76h1.22-1.22ZM493.43,402.12h1.22-1.22ZM513.59,407.93l-1.83,1.29h-5.5l-11-11.62,17.72-1.94.61,1.94-1.22,7.1,1.22,3.23ZM561.26,402.12l-12.22,4.52-9.78-.65v-3.23l2.44-4.52,12.83-3.23,6.72,7.1ZM556.37,394.37h1.22-1.22ZM533.76,394.37l3.06,11.62-.61,1.29-15.28,1.29-2.44-2.58-.61-3.23,1.22,5.16h-1.83l-1.22-2.58v-3.23l1.22-.65v-5.81l15.28-1.94,1.22.65ZM577.15,393.72l-3.06,4.52-6.72,1.94-1.83-2.58,1.22-1.29,5.5-1.29,3.06-1.94,1.83.65ZM576.54,393.08h1.22-1.22ZM552.1,393.08l-8.56,3.23-1.22,1.29-.61-.65,1.22-3.87h9.17ZM556.99,393.72l3.06-1.94,3.06.65-4.28,1.94-1.83-.65ZM501.37,392.43h4.28-4.28ZM486.7,392.43l2.44-.65.61,1.94-1.83.65-1.22-1.94ZM679.83,391.79l-1.83,9.68-9.78,4.52-22.61,3.87-3.06-.65,1.22-3.23,22-8.39,11.61-5.81,1.22.65v1.29-1.94h1.22ZM679.21,391.14h1.22-1.22ZM584.49,387.91l.61,1.94-1.22,2.58.61-.65.61,1.29-3.67,2.58-.61-1.29,3.67-6.46ZM584.49,387.27l.61-.65.61,1.29-.61.65-.61-1.29ZM688.38,385.33v27.12l-4.28,20.01-1.22.65-1.83-4.52-14.67-16.14,14.67-8.39,4.28-15.49,3.06-3.23ZM506.26,391.79l22-3.23v-1.29h3.67l1.83-3.87.61,3.87h4.89l.61-1.29,12.22-.65,23.83.65-63.56,6.46-6.11-.65ZM481.82,376.94l33-.65,25.67,1.29-1.22,1.29-5.5.65-50.72-.65-1.22-1.94ZM586.32,369.83l.61-.65.61,1.29-.61.65-.61-1.29ZM584.49,367.25l-1.83,7.1-14.67-.65,15.28-7.1,1.22.65ZM655.38,365.96l.61-.65,1.22,1.94-1.22.65-.61-1.94ZM519.71,356.92l-3.67,12.91v3.23l-1.22,1.29h-28.11l-4.89-10.33v-3.23l1.22-2.58,31.17-1.94,5.5.65ZM673.71,357.57l-1.22,1.94-10.39,5.81-3.67-4.52,1.22-1.29,11.61-4.52,2.44,2.58ZM541.1,354.99l1.22.65v1.94l6.72,12.27v1.94l-1.83,2.58-9.78-.65,1.83-12.91,1.83-5.81ZM536.82,354.99l.61,3.23-1.83,6.46-.61,9.04-14.67.65-.61-1.29,4.89-16.79,12.22-1.29ZM546.6,355.63l2.44-1.29,13.45-.65,1.22,1.94,12.83,9.04,2.44.65.61-.65-1.22-1.29,1.22-.65,3.67,2.58-7.33,3.87-15.28,4.52-14.06-16.79v-1.29ZM475.7,353.69l1.83,1.94,4.89,18.72-.61,2.58-6.72-20.66.61-2.58ZM709.16,353.05h1.22-1.22ZM573.49,353.69l9.78-1.29,6.11.65-1.83,8.39-1.22,1.29-1.22-1.94-11.61-7.1ZM596.1,349.82l1.22,3.23v4.52l-7.94,27.76-4.28,7.1-.61-1.29,1.83-3.23v-1.94l-7.33-.65,3.67-3.23,2.44-3.87,1.22.65.61,5.16,2.44-5.81-.61-2.58,7.33-25.82ZM527.04,350.47l-5.5,3.23h-39.11l37.28-3.87,7.33.65ZM596.71,347.88l-.61,1.29-4.89.65h-22l-20.17,1.29-12.22-.65.61-1.29,3.67-.65,36.67-1.29,18.95.65ZM531.93,340.78l1.22-.65,1.83,2.58-.61.65-2.44-2.58ZM531.32,340.14h1.22-1.22ZM536.82,339.49h1.22-1.22ZM530.71,339.49h1.22-1.22ZM530.1,338.2l-51.34,2.58-1.22-1.29.61-1.29,49.5-1.94,2.44,1.94ZM615.04,334.33l1.22,8.39.61,17.43-5.5,23.24-1.22,1.94-3.67,1.29-.61-1.29,6.72-14.85,2.44-36.15ZM556.99,330.45l.61,1.29-1.22,2.58-3.06.65v-1.94l3.67-2.58ZM556.99,330.45h1.22-1.22ZM698.77,329.81l-6.11,14.2-3.67,3.87-14.67,4.52-9.17,1.29-5.5,1.94-1.83-.65,4.89-1.94-4.89-.65,1.22-9.04,1.83-5.16,20.78-5.16h2.44l1.22,1.29,12.22-5.16,1.22.65ZM557.6,329.81h1.22-1.22ZM624.21,324.64l.61,9.04-3.67,5.16-.61-9.68,3.67-4.52ZM457.98,320.12l.61,1.94-4.28,12.91-1.83,41.32-2.44-3.87,3.06-41.32,4.89-10.98ZM599.15,336.26l-.61,1.29-31.78,1.29-11.61,1.29h-15.28l-2.44-1.29,12.22-1.29,45.84-1.29.61-.65-3.67-13.56.61-3.23,6.11,17.43ZM558.82,334.33l3.06-8.39,8.56-7.1,15.89.65,1.22,1.29,3.67,12.91-26.28,1.29-6.11-.65ZM457.98,319.48l.61-.65.61,1.29-.61.65-.61-1.29ZM563.1,319.48l-13.45,12.27-1.22-.65,3.06-12.91h7.94l3.67,1.29ZM534.37,317.54h7.94l3.67,1.29-4.28,16.14-11.61-.65,4.28-16.79ZM592.43,316.89v2.58-2.58ZM676.77,316.25l9.17,8.39.61,5.81-1.22,1.29h-1.22l-7.94-14.2.61-1.29ZM483.04,334.33l-.61-5.81,5.5-12.27,42.17,1.94-4.89,16.79-40.95.65-1.22-1.29ZM675.55,316.25h1.22-1.22ZM481.2,315.6l1.22,1.29-4.28,18.08-.61-11.62,3.67-7.75ZM485.48,313.02l1.22-1.29,37.28.65-23.83,1.29-14.67-.65ZM667.6,310.44l9.17,17.43-1.22,1.94-7.94,1.94v-21.31ZM538.04,311.08l8.56-.65,7.94,1.29,36.06,1.94,1.83,2.58-.61.65-7.94-1.29-44.61-2.58-1.22-1.94ZM670.66,308.5l.61-1.29,1.22.65-1.22,1.29-.61-.65ZM670.05,307.21h1.22-1.22ZM462.87,307.21h1.22-1.22ZM692.66,305.92l3.06,1.94,5.5,14.2v1.94l-11,5.81-9.17-18.72,6.72-4.52,4.89-.65ZM463.48,305.92h1.22-1.22ZM540.49,303.34l.61.65-3.06,4.52-1.22-1.94,3.67-3.23ZM540.49,303.34h1.22-1.22ZM608.32,302.05l6.11,11.62v14.85l-6.72-23.89.61-2.58ZM531.93,302.69l-1.22,1.29-4.28,1.29-34.22,3.23-5.5-.65,1.22-1.94,4.89-1.29,37.89-2.58,1.22.65ZM541.71,301.4l1.22-1.29,39.11,1.29,3.06-.65,1.22,1.94-28.72.65-15.28-.65-.61-1.29ZM714.66,303.34l3.67,11.62,1.22,7.1-.61,10.98-4.89,13.56-9.78,10.33,3.67-3.23h1.83l-3.06,6.46-3.67,5.16-7.33,7.1-33,20.66-16.5,8.39-23.83,10.33-65.39,20.01-29.95,10.33-26.28,10.33-19.56,10.33-4.28,1.29-9.17,9.68-4.89,10.98v9.68l4.89,9.04,7.33,7.1-1.22,1.94-7.94-7.75-3.06-4.52-4.28-10.98-.61-16.14,4.28-13.56,6.11-7.75,7.94-7.75,1.83.65,11-7.1,15.89-8.39,26.89-11.62,25.06-8.39,2.44.65-6.11,3.87,37.28-14.85,7.33-3.87,22.61-7.75,26.28-10.98,1.22.65-5.5,3.87h1.22l24.45-12.27-2.44.65-.61-.65,1.22-1.29,8.56-4.52,15.89-11.62,1.22.65-11.61,10.98,1.83-.65,4.89-3.87,15.89-16.79,7.94-11.62,2.44-5.16,1.83-13.56-1.83-5.16-3.67-5.16,1.83-2.58,3.06,5.16ZM580.21,294.94h1.22-1.22ZM579.6,294.3h1.22-1.22ZM578.99,293.65h1.22-1.22ZM556.37,293.65l1.22-1.29,5.5,5.16-6.72.65v-4.52ZM673.1,291.72l.61,1.94-5.5,12.27-1.22-1.29.61-2.58,5.5-10.33ZM578.38,292.36h1.22-1.22ZM673.1,291.72h1.22-1.22ZM577.76,291.72h1.22-1.22ZM577.15,291.07h1.22-1.22ZM541.71,289.13l1.22,1.29.61,8.39-3.67.65-.61-2.58,2.44-7.75ZM575.93,289.13l.61-.65,1.22,1.94-.61.65-1.22-1.94ZM575.32,288.49h1.22-1.22ZM538.65,285.26l-2.44,10.33-1.83,3.87-36.06,1.94-3.67-.65,7.94-14.2,29.95-1.94,6.11.65ZM546.6,283.97l6.72.65-3.67,14.2-3.67-.65.61-14.2ZM555.76,284.61l8.56-1.29,11,11.62-4.28,3.23-15.28-13.56ZM701.22,278.16l.61-.65,2.44,3.23-.61.65-2.44-3.23ZM542.93,278.16l-1.83,1.94-12.22,3.23-29.33-1.94-12.22,22.6-1.83,1.94-1.22-1.29,14.67-24.53,33-1.29,9.78-1.29,1.22.65ZM700.6,277.51h1.22-1.22ZM479.98,276.22v2.58l-15.28,26.47v-3.23l4.89-11.62,10.39-14.2ZM544.76,276.22h1.22l.61,2.58h22l3.06,2.58,4.28,6.46-.61.65-5.5-7.1-23.22-.65-1.83-1.29v-3.23ZM699.38,275.58l.61-.65,1.22,1.94-.61.65-1.22-1.94ZM698.77,274.93h1.22-1.22ZM481.2,274.28l.61,1.29-1.22,1.29-.61-1.29,1.22-1.29ZM481.2,274.28h1.22-1.22ZM592.43,272.99h1.22-1.22ZM481.82,272.99l.61-.65.61,1.29-.61.65-.61-1.29ZM482.43,272.35h1.22-1.22ZM483.04,271.7h1.22-1.22ZM545.37,269.77l12.83-.65,2.44,1.94-13.45.65-1.83-1.94ZM555.15,266.54h1.22-1.22ZM554.54,265.89h1.22-1.22ZM553.93,265.25h1.22-1.22ZM553.32,264.6h1.22-1.22ZM687.16,263.95h1.22-1.22ZM552.71,263.95h1.22-1.22ZM588.77,262.02l6.72-3.23,2.44,4.52,1.83,8.39-.61.65-10.39-10.33ZM673.1,258.14l1.22-.65,12.22,10.98,7.94,8.39.61,2.58-11,1.94-8.56-9.04-2.44-14.2ZM709.77,255.56l7.94,16.79v3.87l-3.67,11.62-4.28,9.04-4.28,3.23-6.11,1.94h-4.28l-7.33,2.58-14.06,2.58-.61-3.23,3.06-16.79,22-5.16,7.94-.65-3.67-10.33-13.45-12.27,20.78-3.23ZM544.15,262.66l-.61,2.58-22.61-1.29,13.45-11.62,9.78,10.33ZM597.93,250.4l-12.83,7.1h-1.22l-2.44-2.58,14.67-5.16,1.83.65ZM536.82,249.11l2.44-.65,14.06,14.85-.61.65-15.89-14.85ZM532.54,243.94l.61,2.58-21.39,22.6,26.28-.65.61,1.29-3.67,1.29h-25.06l-1.22-3.23,23.83-23.89ZM533.15,243.94h1.22-1.22ZM533.76,243.3h1.22-1.22ZM534.37,242.65h1.22-1.22ZM568.6,242h1.83-1.83ZM534.98,242h1.22-1.22ZM535.6,241.36h1.22-1.22ZM569.82,241.36l1.22-1.29,1.22.65-1.22,1.29-1.22-.65ZM536.21,240.71h1.22-1.22ZM575.32,238.78l-2.44,1.94-1.22-.65,2.44-1.94,1.22.65ZM564.93,237.48h1.22-1.22ZM541.1,236.19l.61.65-4.28,3.87-.61-.65,4.28-3.87ZM545.99,235.55l.61,1.29-7.33,7.1v-3.23l6.72-5.16ZM541.1,236.19h1.22-1.22ZM552.1,234.9h3.67l37.28,36.15-.61,1.94-40.34-38.09ZM568.6,232.97l1.22,1.29-3.67,3.23v-3.23l2.44-1.29ZM584.49,232.97l-8.56,5.81-1.22-.65,7.33-5.16h2.44ZM545.37,232.32l.61.65-3.67,3.23-.61-.65,3.67-3.23ZM734.22,232.97l-4.28,13.56-6.11,4.52-12.83.65v-1.29l6.72-1.94-18.95,3.87h-9.17l4.28-14.2,1.22-1.29,26.28-5.16h8.56l4.28,1.29ZM545.37,232.32h1.22-1.22ZM520.93,232.32l-36.67,39.38-.61-1.29,4.89-7.1,30.56-31.63,1.83.65ZM583.88,232.32l1.22-1.29,1.22.65-1.22,1.29-1.22-.65ZM520.32,231.67h1.22-1.22ZM517.87,231.67h1.22-1.22ZM585.71,231.03h1.83-1.83ZM520.93,231.03h1.22-1.22ZM521.54,230.38h1.22-1.22ZM522.15,229.74h1.22-1.22ZM522.76,229.09h1.22-1.22ZM515.43,229.09l1.22-.65.61,1.29-.61.65-1.22-1.29ZM523.37,228.45h1.22-1.22ZM523.98,227.8h1.22-1.22ZM518.48,227.8h1.22-1.22ZM524.6,227.15h1.22-1.22ZM519.1,227.15h1.22-1.22ZM601.6,226.51l-.61,17.43-1.22,1.29-18.33,7.75h-1.83l-9.78-9.68,21.39-11.62,7.33-5.16h3.06ZM525.21,226.51h1.22-1.22ZM519.71,226.51h1.22-1.22ZM525.82,225.86h1.22-1.22ZM526.43,225.22h1.22-1.22ZM527.04,224.57h1.22-1.22ZM527.65,223.93h1.22-1.22ZM521.54,223.93h1.22-1.22ZM528.26,223.28h1.22-1.22ZM522.15,223.28h1.22-1.22ZM528.87,222.64h1.22-1.22ZM522.76,222.64h1.22-1.22ZM523.37,221.99h1.22-1.22ZM529.48,221.99l1.22-1.29.61.65-.61,1.29-1.22-.65ZM523.98,221.34h1.22-1.22ZM565.54,220.05l1.83,3.87v3.23l-4.89,9.04-6.72-7.1,9.78-9.04ZM524.6,220.7h1.22-1.22ZM525.21,220.05h1.22-1.22ZM525.82,218.76h1.22-1.22ZM526.43,218.12h1.22-1.22ZM561.88,217.47l-13.45,14.2h-2.44l14.67-14.85,1.22.65ZM527.04,217.47h1.22-1.22ZM527.65,216.83h1.22-1.22ZM561.26,216.83l.61-1.29,1.22.65-1.22,1.29-.61-.65ZM528.26,216.18h1.22-1.22ZM562.49,215.53h1.22-1.22ZM563.1,214.89h1.22-1.22ZM563.71,214.24l.61-1.29,1.22.65-1.22,1.29-.61-.65ZM618.71,206.5h1.22-1.22ZM598.54,203.91h1.83l15.28,9.04-10.39,25.18-1.22-2.58-1.83-12.27-12.83.65-7.94-4.52,6.11-9.04,11-6.46ZM712.22,196.81l1.22,3.87,1.83,1.94,20.17,14.2v8.39l-1.83,2.58-9.17,2.58-4.28-.65-4.89-9.04-4.28-5.16.61-1.29-1.83-3.23,2.44-14.2ZM546.6,195.52l-12.83,14.2-13.45-9.68.61-1.29,17.72-3.23h7.94ZM619.32,205.85h-3.67l-15.89-7.1-13.45,7.1-6.72,6.46-.61,4.52-1.22,1.29,9.17,7.75,1.22,2.58-1.83,1.94h-2.44l-8.56,3.23-1.22-.65-6.72-14.2,9.78-10.33,4.28-6.46,17.72-5.81,1.83.65.61-1.29-3.06-1.94.61-.65h2.44l9.17,4.52,3.67,3.23-1.22.65-3.06-2.58-4.89-2.58h-1.83l15.89,9.68ZM558.82,191.65l-22.61,24.53h-3.67l25.06-25.18,1.22.65ZM534.37,191.65l-1.22,1.94h-18.33l4.89-1.94h14.67ZM676.77,191h1.22-1.22ZM699.38,189.06l1.83.65,1.83,10.98-.61,7.1,1.83,3.87,6.72,9.04,9.78,9.68-3.67,1.29-3.06-3.23-8.56-12.27-9.17-10.98,3.06-16.14ZM584.49,188.42l.61,1.29-4.89,8.39-14.67,15.49-.61-1.29,19.56-23.89ZM692.66,187.77l1.22,1.29.61,14.85,1.22,5.81,14.06,19.37-2.44,1.29-11.61,1.29-3.06,1.29-9.78,16.79,1.22,5.81,3.67,6.46-.61,1.94-11.61-11.62v-2.58l2.44-7.1-1.83-24.53v-14.2l6.72-12.91,9.78-3.23ZM584.49,188.42h1.22-1.22ZM712.22,183.9l.61,5.81-5.5,18.08-3.06-3.87v-16.14l2.44-1.94,5.5-1.94ZM671.88,181.32l.61,1.29-11,16.14,6.72-8.39,6.11-3.87h2.44l-3.67,12.91-3.67,7.75,3.06,22.6,1.22,3.23-6.11,29.7.61,7.1,3.06,11.62v5.16l-10.39,16.14,1.83,23.24-11.61,17.43-.61,15.49-3.67,11.62-1.22,1.94-16.5,5.81-.61-1.29,3.67-10.98,3.67-28.41,2.44-9.68v-4.52l11-25.18-1.83-21.31,9.78-20.66-4.89-30.34-.61-13.56,15.28-27.76,2.44-2.58,2.44-.65ZM539.26,181.96l-3.06,5.81v-4.52l1.22-1.94,1.83.65ZM671.88,181.32h1.22-1.22ZM698.16,180.67l-.61,1.94-13.45,2.58-6.11,5.81-.61-.65,4.28-6.46,15.28-4.52,1.22,1.29ZM472.65,178.73l9.78,16.79,26.89,25.18,6.72,7.1-.61,1.29-34.22-32.28-9.17-16.79.61-1.29ZM622.38,177.44l14.06,22.6-2.44,15.49-12.22,21.31v1.94l6.72,15.49-11.61,23.24,1.83,8.39,4.28,10.33-6.72,9.68-1.22-1.29-.61-5.81-6.72-11.62v-5.81l-7.33-20.66,19.56-41.32,3.67-10.98,1.22-.65h-3.06l-.61-1.29h1.22l-4.28-3.87-4.89-7.1-7.33-2.58-7.94-.65-14.06,7.75-.61-1.29,11.61-17.43,3.06-1.94,7.33.65,12.22,5.16,6.72,5.16,6.11,6.46-7.33-11.62-1.22-4.52.61-3.23ZM470.81,175.51l1.83,2.58-.61,1.29-1.83-2.58.61-1.29ZM469.59,175.51h1.22-1.22ZM468.98,174.21h1.22-1.22ZM465.31,167.76h1.22-1.22ZM464.7,166.47h1.22-1.22ZM485.48,164.53l.61-.65,12.22,16.14,3.67.65-6.11.65-10.39-16.79ZM571.04,161.95l-10.39,15.49-62.34-.65-4.89-6.46.61-1.29,73.34-7.75,3.67.65ZM539.87,159.37l-8.56,1.29-45.22,2.58-.61,1.29-1.83-2.58,3.06-1.29,29.33-.65,13.45-1.29,10.39.65ZM580.21,158.07l-11,20.66-1.83,1.94-24.45.65-1.22,7.1,8.56,1.94-7.33.65-2.44-1.29-.61-1.29,1.22-8.39,25.67-.65,10.39-20.66,1.22-1.29,1.83.65ZM607.1,151.62l6.11,5.81-3.67-4.52.61-1.29,4.89,5.16.61,4.52,4.28,10.98-1.22,2.58v7.1l-18.33-5.81-.61-7.75,1.83-4.52,1.22-.65,1.22,1.29-.61,10.98,12.22,3.23-12.83-16.79,1.83-7.1,2.44-3.23ZM536.82,151.62v2.58-2.58ZM608.93,151.62h1.22-1.22ZM533.15,150.97l2.44,1.94,1.22,2.58-.61,1.29-3.67-4.52.61-1.29ZM761.11,150.97h1.22-1.22ZM608.32,150.97h1.22-1.22ZM607.71,150.33h1.22-1.22ZM607.1,149.68h1.22-1.22ZM531.32,149.68l.61-.65.61,1.29-.61.65-.61-1.29ZM530.71,148.39h1.22-1.22ZM525.21,149.04l-3.67,1.29h-15.89l-13.45,1.29h-10.39l-1.22-1.29.61-1.29,33-1.29,11,1.29ZM537.43,148.39l1.22-1.29h26.28l7.33,1.29-33.61,1.29-1.22-1.29ZM579.6,147.1h5.5-5.5ZM572.88,147.1h5.5-5.5ZM604.04,145.16l.61,1.94-4.89,18.08-9.17,14.2-.61-1.29,14.06-32.93ZM604.04,143.87l.61-.65.61,1.29-.61.65-.61-1.29ZM480.59,142.58l.61-3.23,1.22-1.29h101.45l-3.06,6.46-80.67-.65-19.56-1.29ZM587.54,136.12h1.22-1.22ZM457.98,127.09l6.72,36.15-.61,1.94-3.67-6.46-3.06-27.76.61-3.87ZM591.21,131.6l-1.83,1.29-.61,1.94-.61-2.58-62.34,3.23h-15.89l-30.56,1.94-3.67-.65v-2.58l1.22-1.29,4.28-.65,53.78.65,1.83-7.75.61,6.46h53.78ZM538.04,123.21l51.34-.65.61,1.29-51.34.65-.61-1.29ZM786.16,119.98h1.83-1.83ZM787.39,119.34l8.56-5.81,6.72,1.29,6.72,3.23,3.67.65-1.83,1.94-15.28-3.23-6.11,2.58-2.44-.65ZM593.04,112.88l.61,1.94-2.44,5.16-.61-1.94,1.22-4.52,1.22-.65ZM592.43,110.3v2.58-2.58ZM591.21,108.36l.61-.65.61,1.29-.61.65-.61-1.29ZM591.21,105.13v2.58-2.58ZM588.77,105.13v3.23-3.23ZM564.32,105.13h2.44v3.23l2.44-3.87,7.33.65,6.72,2.58,1.22,6.46-20.17.65v-9.68ZM816.72,113.53v1.29l-2.44,1.29-4.28-2.58-15.89-1.94-5.5,3.23-2.44,2.58-.61,3.23h-1.22l-7.33,30.34-28.72,23.89-15.28,5.16-35.45-2.58-.61,1.29-4.28-1.29-18.95,6.46-.61-.65,2.44-4.52,20.17-12.27,44-1.29,9.78-4.52,9.78-7.75,3.67-.65,1.83-5.16-2.44,3.87-1.22-1.29,2.44-21.31,4.28-7.75,1.22-1.29.61.65-3.67,24.53,4.89-20.66,15.28-17.43,20.78-2.58,2.44,1.94-4.89.65,4.89-.65,3.06,1.29,4.28,6.46ZM589.99,99.97v2.58-2.58ZM589.38,87.7l.61,1.29-1.83,2.58v1.94l1.83,5.81-1.83,2.58-1.22-12.91,2.44-1.29ZM597.93,86.41l3.67.65,6.11,12.91,1.83,27.76-3.67,12.27-.61-9.68,1.22-26.47-5.5-14.85-5.5-1.29,2.44-1.29ZM461.04,78.66l.61.65-3.67,6.46v20.66l-1.22,12.27-1.83-10.33,1.83-25.82,4.28-3.87ZM462.87,76.08l1.83-1.29,6.72,9.68.61,34.22,47.06,3.23h12.22l1.22,1.29-.61.65h-4.89,4.28l.61,1.94-2.44.65-58.06-5.81-1.22-5.81-1.22-30.34-5.5-6.46-.61-1.94Z"/>
    </g>
  </g>
</svg>